<svg width="17" height="16" viewBox="0 0 17 16" fill="none" xmlns="http://www.w3.org/2000/svg">
<path d="M8.4141 11.6666C7.99763 13.8581 6.11385 15.5298 3.82351 15.621L3.62622 15.6249H2.08742C1.72418 15.6249 1.42444 15.3531 1.38047 15.0018L1.37492 14.9124V13.6458C1.37492 13.3452 1.59829 13.0967 1.8881 13.0574L1.96867 13.052H3.552C4.38897 13.052 5.10459 12.5325 5.39398 11.7983L5.44056 11.6666H8.4141ZM9.88533 0.583252C11.3063 0.583252 12.4583 1.73518 12.4583 3.15617V8.302C12.4583 9.72296 11.3063 10.8749 9.88533 10.8749H3.15617C1.73518 10.8749 0.583252 9.72296 0.583252 8.302V3.15617C0.583252 1.73518 1.73518 0.583252 3.15617 0.583252H9.88533ZM16.1154 1.05615C16.3016 1.16155 16.4166 1.35893 16.4166 1.57284V9.88534C16.4166 10.0992 16.3016 10.2966 16.1154 10.402C15.9292 10.5074 15.7008 10.5045 15.5173 10.3945L13.2499 9.03398V2.42416L15.5173 1.0637C15.7008 0.953641 15.9292 0.950759 16.1154 1.05615Z" fill="#76C9B5"/>
</svg>
