<svg width="26" height="25" viewBox="0 0 26 25" fill="none" xmlns="http://www.w3.org/2000/svg">
<path d="M16.2389 6.06551H9.68434C8.04287 6.06551 6.70656 7.40181 6.70656 9.04328V15.5978C6.70656 17.2393 8.04287 18.5756 9.68434 18.5756H16.2389C17.8803 18.5756 19.2166 17.2393 19.2166 15.5978V9.04328C19.2166 7.40181 17.8803 6.06551 16.2389 6.06551ZM12.9616 16.2157C10.814 16.2157 9.06642 14.4681 9.06642 12.3205C9.06642 10.173 10.814 8.42536 12.9616 8.42536C15.1092 8.42536 16.8568 10.173 16.8568 12.3205C16.8568 14.4681 15.1092 16.2157 12.9616 16.2157ZM16.9629 9.22146C16.4606 9.22146 16.0531 8.81393 16.0531 8.31069C16.0531 7.80839 16.4606 7.40087 16.9629 7.40087C17.4662 7.40087 17.8737 7.80839 17.8737 8.31069C17.8737 8.81393 17.4662 9.22146 16.9629 9.22146ZM12.9616 9.75219C11.5457 9.75219 10.3932 10.9046 10.3932 12.3205C10.3932 13.7365 11.5457 14.8889 12.9616 14.8889C14.3775 14.8889 15.5299 13.7365 15.5299 12.3205C15.5299 10.9046 14.3775 9.75219 12.9616 9.75219ZM12.9616 0.189575C6.26208 0.189575 0.830627 5.62103 0.830627 12.3205C0.830627 19.0201 6.26208 24.4515 12.9616 24.4515C19.6611 24.4515 25.0926 19.0201 25.0926 12.3205C25.0926 5.62103 19.6611 0.189575 12.9616 0.189575ZM20.5434 15.5978C20.5434 17.9709 18.612 19.9024 16.2389 19.9024H9.68434C7.31122 19.9024 5.37974 17.9709 5.37974 15.5978V9.04328C5.37974 6.67016 7.31122 4.73869 9.68434 4.73869H16.2389C18.612 4.73869 20.5434 6.67016 20.5434 9.04328V15.5978Z" fill="black"/>
</svg>
