<svg width="26" height="25" viewBox="0 0 26 25" fill="none" xmlns="http://www.w3.org/2000/svg">
<path d="M16.2389 6.06539H9.68434C8.04287 6.06539 6.70656 7.40169 6.70656 9.04316V15.5977C6.70656 17.2391 8.04287 18.5754 9.68434 18.5754H16.2389C17.8803 18.5754 19.2166 17.2391 19.2166 15.5977V9.04316C19.2166 7.40169 17.8803 6.06539 16.2389 6.06539ZM12.9616 16.2156C10.814 16.2156 9.06642 14.468 9.06642 12.3204C9.06642 10.1729 10.814 8.42524 12.9616 8.42524C15.1092 8.42524 16.8568 10.1729 16.8568 12.3204C16.8568 14.468 15.1092 16.2156 12.9616 16.2156ZM16.9629 9.22134C16.4606 9.22134 16.0531 8.81381 16.0531 8.31057C16.0531 7.80827 16.4606 7.40074 16.9629 7.40074C17.4662 7.40074 17.8737 7.80827 17.8737 8.31057C17.8737 8.81381 17.4662 9.22134 16.9629 9.22134ZM12.9616 9.75207C11.5457 9.75207 10.3932 10.9045 10.3932 12.3204C10.3932 13.7363 11.5457 14.8888 12.9616 14.8888C14.3775 14.8888 15.5299 13.7363 15.5299 12.3204C15.5299 10.9045 14.3775 9.75207 12.9616 9.75207ZM12.9616 0.189453C6.26208 0.189453 0.830627 5.6209 0.830627 12.3204C0.830627 19.0199 6.26208 24.4514 12.9616 24.4514C19.6611 24.4514 25.0926 19.0199 25.0926 12.3204C25.0926 5.6209 19.6611 0.189453 12.9616 0.189453ZM20.5434 15.5977C20.5434 17.9708 18.612 19.9023 16.2389 19.9023H9.68434C7.31122 19.9023 5.37974 17.9708 5.37974 15.5977V9.04316C5.37974 6.67004 7.31122 4.73857 9.68434 4.73857H16.2389C18.612 4.73857 20.5434 6.67004 20.5434 9.04316V15.5977Z" fill="white"/>
</svg>
