<svg width="14" height="14" viewBox="0 0 14 14" fill="none" xmlns="http://www.w3.org/2000/svg">
<path fill-rule="evenodd" clip-rule="evenodd" d="M7.04972 13.3932H7.04694C5.92334 13.3928 4.81929 13.1123 3.8387 12.58L0.279755 13.5091L1.23219 10.0469C0.644681 9.03358 0.335537 7.8842 0.336041 6.70662C0.337514 3.02275 3.34921 0.0256348 7.04965 0.0256348C8.8456 0.0264062 10.5312 0.722218 11.7987 1.98514C13.0663 3.24801 13.7639 4.92666 13.7632 6.71189C13.7617 10.3949 10.7512 13.3917 7.04972 13.3932ZM4.00381 11.3685L4.20757 11.4888C5.0643 11.9948 6.04637 12.2625 7.04767 12.2629H7.04993C10.1255 12.2629 12.6287 9.77165 12.6299 6.70957C12.6305 5.22569 12.0506 3.83047 10.9971 2.78078C9.94358 1.73108 8.54255 1.15272 7.05212 1.1522C3.9742 1.1522 1.47098 3.64321 1.46976 6.70507C1.46933 7.75439 1.76434 8.7763 2.32291 9.66046L2.45559 9.87057L1.89188 11.9198L4.00381 11.3685ZM10.2025 8.15039C10.3195 8.20667 10.3985 8.24466 10.4323 8.30071C10.4742 8.37032 10.4742 8.70457 10.3345 9.09461C10.1946 9.48456 9.52449 9.84047 9.20217 9.88839C8.91318 9.93139 8.54745 9.94933 8.14562 9.82223C7.90197 9.7453 7.58953 9.64258 7.18931 9.47056C5.6167 8.79477 4.55394 7.27786 4.35308 6.99117C4.33901 6.97109 4.32917 6.95704 4.32368 6.94975L4.32232 6.94795C4.23355 6.83007 3.63872 6.04022 3.63872 5.22275C3.63872 4.45376 4.01828 4.05069 4.19299 3.86516C4.20496 3.85244 4.21596 3.84075 4.22582 3.83004C4.37958 3.6629 4.56133 3.62111 4.67315 3.62111C4.78497 3.62111 4.89692 3.62214 4.99466 3.62703C5.00672 3.62763 5.01926 3.62756 5.03223 3.62748C5.12999 3.62691 5.25186 3.6262 5.37208 3.91361C5.41834 4.02421 5.48601 4.18818 5.55739 4.36112C5.70173 4.71086 5.86122 5.09728 5.88928 5.1532C5.93123 5.23677 5.95918 5.33422 5.90327 5.44569C5.89487 5.4624 5.88711 5.47818 5.87969 5.49325C5.8377 5.57858 5.8068 5.64134 5.73553 5.72417C5.7075 5.75674 5.67853 5.79185 5.64956 5.82696C5.59185 5.8969 5.53414 5.96684 5.48389 6.01666C5.39992 6.09991 5.3125 6.19023 5.41035 6.35737C5.5082 6.52451 5.84486 7.07118 6.34355 7.51387C6.87961 7.98973 7.34552 8.19086 7.58168 8.2928C7.6278 8.31271 7.66515 8.32884 7.69256 8.34249C7.86024 8.42608 7.9581 8.41209 8.05596 8.30071C8.15382 8.18929 8.4753 7.81321 8.58711 7.6461C8.69893 7.47903 8.8108 7.50686 8.96453 7.56255C9.11833 7.61831 9.94306 8.02214 10.1108 8.1057C10.1436 8.12201 10.1742 8.13674 10.2025 8.15039Z" fill="white"/>
</svg>
