<svg width="80" height="10" viewBox="0 0 80 10" fill="none" xmlns="http://www.w3.org/2000/svg">
<path fill-rule="evenodd" clip-rule="evenodd" d="M34.2061 0.19751C35.4889 0.19751 36.9392 0.745116 37.9838 2.02932L36.3657 3.4245C35.9079 2.87669 35.1278 2.32928 34.2061 2.32928C32.8331 2.32928 31.6921 3.35262 31.6921 5.0997C31.6921 6.59896 32.6847 7.79844 34.2061 7.79844C35.0505 7.79844 35.8626 7.34858 36.3655 6.71626L37.9836 8.11795C37.2038 9.10197 35.9532 9.87848 34.3658 9.92755L34.2055 9.92997L34.0833 9.92894C31.5505 9.87625 29.3778 8.19209 29.3778 5.0997C29.3778 2.38794 31.1184 0.19751 34.2061 0.19751ZM17.4485 0.327786C19.5308 0.327786 20.5365 1.18168 20.5365 2.64835C20.5365 3.45031 20.1949 4.31724 19.1762 4.74102V4.76729C20.4461 5.11268 21.0198 5.99284 21.0198 7.16625C21.0198 8.69157 20.0336 9.81285 18.0223 9.81285H13.9095V0.327786H17.4485ZM43.6445 0.327825L47.0935 9.81269H44.1692L42.5882 7.10033L41.0112 9.81269H38.0941L41.53 0.327825H43.6445ZM6.34323 0.327825V2.32275H2.17247V4.45432H5.61484V6.43602H2.17247V9.81269H0V0.327825H6.34323ZM26.5431 0.327845L29.9921 9.81271H27.6841L27.1363 8.11795H23.842L23.3005 9.81271H20.9929L24.4286 0.327845H26.5431ZM51.3824 0.327727C53.6968 0.327727 54.7217 1.71639 54.7217 3.60033C54.7217 5.71236 53.3293 6.75544 51.2151 6.75544H49.9899V9.81279H47.8176V0.327727H51.3824ZM57.6764 0.327865V9.81273H55.446V0.327865H57.6764ZM65.5449 0.327667V2.32259H63.0694V9.81273H60.8713V2.32259H58.3958V0.327667H65.5449ZM69.3565 0.327845L72.8055 9.81271H70.4975L69.9498 8.11795H66.6556L66.1141 9.81271H63.8065L67.2422 0.327845H69.3565ZM75.7587 0.327845V7.8245H79.6909V9.81271H73.5412V0.327845H75.7587ZM13.1895 0.321605V2.31653H9.23136V4.1353H12.3578V6.09744H9.23136V7.81846H13.1902V9.80667H7.06533L7.06552 0.321605H13.1895ZM17.3454 5.8625H16.0753V7.86374H17.3454C18.1638 7.85703 18.7249 7.53119 18.7249 6.86628C18.7249 6.27957 18.2865 5.8625 17.3454 5.8625ZM25.4989 3.02678H25.4729L24.4481 6.2275H26.5304L25.4989 3.02678ZM68.3126 3.02678H68.2866L67.2616 6.2275H69.3438L68.3126 3.02678ZM50.9506 2.3029H49.9899V4.7933L50.9182 4.7931C51.8852 4.7931 52.4332 4.32389 52.4332 3.5482C52.4332 2.83747 51.9432 2.3029 50.9506 2.3029ZM17.0424 2.29664H16.0755L16.0753 4.1089H17.1132C17.7774 4.1089 18.306 3.80893 18.306 3.20267C18.306 2.6681 17.9258 2.28993 17.0424 2.29664Z" fill="#979797"/>
</svg>
